<svg width="44" height="51" viewBox="0 0 44 51" fill="none" xmlns="http://www.w3.org/2000/svg">
<g clip-path="url(#clip0_1_70)">
<path d="M17.1476 41.8938C17.1462 40.5934 17.5739 39.3288 18.3642 38.2961C19.1546 37.2634 20.2635 36.5203 21.5191 36.1818C22.7747 35.8433 24.1069 35.9285 25.3092 36.4241C26.5115 36.9197 27.5168 37.798 28.1692 38.9229C32.6622 36.9408 34.3454 33.8302 34.3454 27.9184V21.4692C34.3454 12.8875 29.5064 6.95856 21.9844 6.95856C14.4625 6.95856 9.62349 12.8897 9.62349 21.4692V28.9933C9.62292 29.4207 9.45288 29.8305 9.15063 30.1327C8.84839 30.435 8.43863 30.605 8.0112 30.6056H5.86147C4.29447 30.6039 2.7921 29.9808 1.68386 28.873C0.575626 27.7651 -0.0480171 26.263 -0.050293 24.696L-0.050293 22.5463C-0.048587 20.9787 0.574737 19.4758 1.68298 18.3671C2.79121 17.2585 4.2939 16.6346 5.86147 16.6323H6.88904C8.51638 8.95566 14.0863 3.73396 21.9844 3.73396C29.8826 3.73396 35.4504 8.95566 37.0777 16.6323H38.1053C39.6725 16.6346 41.1748 17.2582 42.283 18.3664C43.3912 19.4745 44.0148 20.9769 44.017 22.5441V24.6938C44.0153 26.2612 43.3919 27.7639 42.2836 28.8722C41.1753 29.9805 39.6726 30.6039 38.1053 30.6056H37.441C37.3581 33.1517 36.5038 35.6127 34.9913 37.6626C33.4788 39.7125 31.3794 41.2548 28.9711 42.0852C28.9457 43.653 28.2985 45.1466 27.1719 46.2374C26.0453 47.3281 24.5315 47.9266 22.9636 47.9012C21.3958 47.8759 19.9021 47.2287 18.8114 46.1021C17.7207 44.9755 17.1222 43.4617 17.1476 41.8938ZM20.3721 41.8938C20.3721 42.4253 20.5297 42.9448 20.825 43.3867C21.1203 43.8286 21.54 44.1731 22.031 44.3764C22.522 44.5798 23.0623 44.633 23.5835 44.5294C24.1048 44.4257 24.5836 44.1697 24.9594 43.7939C25.3352 43.4181 25.5912 42.9393 25.6948 42.4181C25.7985 41.8968 25.7453 41.3565 25.5419 40.8655C25.3385 40.3745 24.9941 39.9548 24.5522 39.6595C24.1103 39.3643 23.5908 39.2067 23.0593 39.2067C22.3468 39.2072 21.6636 39.4905 21.1598 39.9943C20.656 40.4982 20.3727 41.1813 20.3721 41.8938ZM37.57 27.3831H38.1053C38.8182 27.3831 39.5019 27.1001 40.0061 26.5962C40.5104 26.0923 40.794 25.4089 40.7946 24.696V22.5463C40.7946 21.8334 40.5115 21.1497 40.0077 20.6454C39.5038 20.1411 38.8203 19.8575 38.1074 19.8569H37.57V27.3831ZM3.1743 22.5463V24.696C3.17544 25.4081 3.45899 26.0907 3.96274 26.5941C4.4665 27.0974 5.14933 27.3804 5.86147 27.381H6.3989V19.8569H5.86147C5.14859 19.8575 4.4651 20.1411 3.96122 20.6454C3.45735 21.1497 3.1743 21.8334 3.1743 22.5463Z" fill="#FFD175"/>
</g>
<defs>
<clipPath id="clip0_1_70">
<rect width="44" height="50" fill="white" transform="translate(0 0.193481)"/>
</clipPath>
</defs>
</svg>
