<svg width="50" height="51" viewBox="0 0 50 51" fill="none" xmlns="http://www.w3.org/2000/svg">
<path d="M1.5 25.1935V16.381C1.5 14.7586 2.81518 13.4435 4.4375 13.4435H16.1875M1.5 25.1935V39.881C1.5 41.5034 2.81518 42.8185 4.4375 42.8185H45.5625C47.1849 42.8185 48.5 41.5034 48.5 39.881V25.1935M1.5 25.1935L22.0625 28.131H27.9375L48.5 25.1935M16.1875 13.4435V10.506C16.1875 8.88366 17.5027 7.56848 19.125 7.56848H30.875C32.4974 7.56848 33.8125 8.88366 33.8125 10.506V13.4435M16.1875 13.4435H33.8125M48.5 25.1935V16.381C48.5 14.7586 47.1849 13.4435 45.5625 13.4435H33.8125M22.0625 32.5372H27.9375" stroke="#FFD175" stroke-width="2.9375" stroke-linecap="round" stroke-linejoin="round"/>
</svg>
