<svg width="20" height="20" viewBox="0 0 20 20" fill="none" xmlns="http://www.w3.org/2000/svg">
<path d="M19.6211 7.14551C19.7734 7.02441 20 7.1377 20 7.3291V15.3174C20 16.3525 19.1602 17.1924 18.125 17.1924H1.875C0.839844 17.1924 0 16.3525 0 15.3174V7.33301C0 7.1377 0.222656 7.02832 0.378906 7.14941C1.25391 7.8291 2.41406 8.69238 6.39844 11.5869C7.22266 12.1885 8.61328 13.4541 10 13.4463C11.3945 13.458 12.8125 12.165 13.6055 11.5869C17.5898 8.69238 18.7461 7.8252 19.6211 7.14551ZM10 12.1924C10.9062 12.208 12.2109 11.0518 12.8672 10.5752C18.0508 6.81348 18.4453 6.48535 19.6406 5.54785C19.8672 5.37207 20 5.09863 20 4.80957V4.06738C20 3.03223 19.1602 2.19238 18.125 2.19238H1.875C0.839844 2.19238 0 3.03223 0 4.06738V4.80957C0 5.09863 0.132812 5.36816 0.359375 5.54785C1.55469 6.48144 1.94922 6.81348 7.13281 10.5752C7.78906 11.0518 9.09375 12.208 10 12.1924Z" fill="#FF8822"/>
</svg>
