<svg width="20" height="20" viewBox="0 0 20 20" fill="none" xmlns="http://www.w3.org/2000/svg">
<path d="M9.75 10C12.5117 10 14.75 7.76172 14.75 5C14.75 2.23828 12.5117 0 9.75 0C6.98828 0 4.75 2.23828 4.75 5C4.75 7.76172 6.98828 10 9.75 10ZM13.4922 11.2734L11.625 18.75L10.375 13.4375L11.625 11.25H7.875L9.125 13.4375L7.875 18.75L6.00781 11.2734C3.22266 11.4062 1 13.6836 1 16.5V18.125C1 19.1602 1.83984 20 2.875 20H16.625C17.6602 20 18.5 19.1602 18.5 18.125V16.5C18.5 13.6836 16.2773 11.4062 13.4922 11.2734Z" fill="#FF8822"/>
</svg>
