<svg width="100" height="90" viewBox="0 0 100 90" fill="none" xmlns="http://www.w3.org/2000/svg">
<path d="M57.5 0H42.5C38.25 0 35 3.25 35 7.5V15H40V7.5C40 6 41 5 42.5 5H57.5C59 5 60 6 60 7.5V15H65V7.5C65 3.25 61.75 0 57.5 0Z" fill="#424242"/>
<path d="M90 90H10C4.5 90 1.17188e-07 85.5 0 80V20C0 14.5 4.5 10 10 10H90C95.5 10 100 14.5 100 20V80C100 85.5 95.5 90 90 90Z" fill="#E65100"/>
<path d="M90 52.5H10C4.5 52.5 1.17188e-07 48 0 42.5V20C0 14.5 4.5 10 10 10H90C95.5 10 100 14.5 100 20V42.5C100 48 95.5 52.5 90 52.5Z" fill="#FF6E40"/>
<path d="M55 47.5H45C43.5 47.5 42.5 46.5 42.5 45V40C42.5 38.5 43.5 37.5 45 37.5H55C56.5 37.5 57.5 38.5 57.5 40V45C57.5 46.5 56.5 47.5 55 47.5Z" fill="#FFF3E0"/>
</svg>
