<svg width="45" height="36" viewBox="0 0 45 36" fill="none" xmlns="http://www.w3.org/2000/svg">
<path fill-rule="evenodd" clip-rule="evenodd" d="M6.1491 7.15108L35.0916 0.63767C39.8643 -0.436415 44.4013 3.19305 44.4013 8.08513V27.9534C44.4013 32.1694 40.9836 35.5871 36.7676 35.5871H7.82514C3.60915 35.5871 0.191406 32.1694 0.191406 27.9534V14.5985C0.191406 11.0283 2.66599 7.93495 6.1491 7.15108ZM6.45119 8.4934L35.3937 1.97999C39.3062 1.0995 43.0254 4.07479 43.0254 8.08513V27.9534C43.0254 31.4095 40.2237 34.2112 36.7676 34.2112H7.82514C4.36903 34.2112 1.5673 31.4095 1.5673 27.9534V14.5985C1.5673 11.6718 3.59587 9.13599 6.45119 8.4934Z" fill="white"/>
<path d="M16.8849 24.715V23.2084H20.5739C21.0996 23.2084 21.5501 23.1192 21.9256 22.9409C22.3104 22.7531 22.6061 22.495 22.8126 22.1665C23.0191 21.8285 23.1224 21.4343 23.1224 20.9837C23.1224 20.5332 23.0191 20.1436 22.8126 19.8151C22.6061 19.4865 22.3104 19.2331 21.9256 19.0547C21.5501 18.867 21.0996 18.7731 20.5739 18.7731H16.899V17.2666H20.6584C21.5407 17.2666 22.3058 17.4261 22.9534 17.7453C23.6011 18.0551 24.1033 18.4869 24.46 19.0407C24.8261 19.5945 25.0091 20.2422 25.0091 20.9837C25.0091 21.7253 24.8261 22.3777 24.46 22.9409C24.1033 23.4947 23.6011 23.9312 22.9534 24.2503C22.3058 24.5601 21.5407 24.715 20.6584 24.715H16.8849ZM12.8017 24.715C11.9287 24.715 11.1637 24.5601 10.5066 24.2503C9.85892 23.9312 9.35204 23.4947 8.98596 22.9409C8.62926 22.3777 8.45091 21.7253 8.45091 20.9837C8.45091 20.2422 8.62926 19.5945 8.98596 19.0407C9.35204 18.4869 9.85892 18.0551 10.5066 17.7453C11.1637 17.4261 11.9287 17.2666 12.8017 17.2666H16.547V18.7731H12.8721C12.3558 18.7731 11.9052 18.867 11.5204 19.0547C11.1449 19.2331 10.8539 19.4865 10.6474 19.8151C10.4409 20.1436 10.3376 20.5332 10.3376 20.9837C10.3376 21.4343 10.4409 21.8285 10.6474 22.1665C10.8539 22.495 11.1449 22.7531 11.5204 22.9409C11.9052 23.1192 12.3558 23.2084 12.8721 23.2084H16.5611V24.715H12.8017ZM15.8007 26.7988V15.7318H17.6593V26.7988H15.8007Z" fill="white"/>
<path d="M27.5811 15.9853H35.297V17.4919H28.1866L28.961 16.9991L28.3696 21.4484L27.8205 21.4625C28.0364 21.1339 28.3274 20.8242 28.6934 20.5332C29.0689 20.2422 29.5195 20.0075 30.0451 19.8292C30.5802 19.6414 31.1809 19.5476 31.8474 19.5476C32.7673 19.5476 33.5464 19.7071 34.1847 20.0263C34.823 20.3361 35.3064 20.7585 35.6349 21.2935C35.9729 21.8286 36.1418 22.434 36.1418 23.1098C36.1418 23.8139 35.9447 24.4381 35.5505 24.9825C35.1562 25.5269 34.5977 25.9587 33.8749 26.2779C33.1615 26.5876 32.312 26.7425 31.3264 26.7425C30.3408 26.7425 29.4866 26.597 28.7638 26.306C28.0411 26.015 27.4685 25.6208 27.0461 25.1233C26.633 24.6164 26.3796 24.0532 26.2857 23.4337H28.1584C28.2898 23.9875 28.6277 24.424 29.1722 24.7431C29.7166 25.0623 30.4347 25.2219 31.3264 25.2219C31.9272 25.2219 32.4434 25.1374 32.8752 24.9684C33.3164 24.7901 33.659 24.546 33.9031 24.2363C34.1471 23.9171 34.2692 23.5416 34.2692 23.1098C34.2692 22.6874 34.1659 22.3214 33.9594 22.0116C33.7623 21.6924 33.4572 21.4484 33.0442 21.2794C32.6406 21.1011 32.1243 21.0119 31.4954 21.0119C30.9791 21.0119 30.5145 21.0729 30.1015 21.1949C29.6978 21.317 29.3458 21.4719 29.0454 21.6596C28.7545 21.8473 28.5104 22.0444 28.3133 22.251H26.7645L27.5811 15.9853Z" fill="white"/>
</svg>
