<svg width="57" height="54" viewBox="0 0 57 54" fill="none" xmlns="http://www.w3.org/2000/svg">
<path d="M15.3173 32.5441H41.6828M15.3173 32.5441V26.2164C15.3173 24.7397 15.3173 24.0014 15.6046 23.4375C15.8574 22.9413 16.2608 22.5379 16.7568 22.2853C17.3208 21.9979 18.0591 21.9979 19.5357 21.9979H37.4643C38.941 21.9979 39.6793 21.9979 40.2432 22.2853C40.7394 22.5379 41.1426 22.9413 41.3954 23.4375C41.6828 24.0014 41.6828 24.7397 41.6828 26.2164V32.5441M15.3173 32.5441V43.0903V51M41.6828 32.5441V43.0903V51M45.2332 11.9086L34.1596 6.37183C32.0844 5.33421 31.0469 4.81542 29.9586 4.61122C28.9946 4.43038 28.0054 4.43038 27.0415 4.61122C25.9531 4.81542 24.9156 5.33421 22.8403 6.37183L11.7668 11.9086C9.22733 13.1783 7.95759 13.8132 7.02992 14.7604C6.20956 15.598 5.58565 16.6074 5.20335 17.7158C4.77106 18.9691 4.77106 20.3887 4.77106 23.2279V46.7815C4.77106 48.258 4.77106 48.9962 5.05841 49.5604C5.31121 50.0564 5.71455 50.4598 6.21064 50.7126C6.77463 51 7.51294 51 8.98954 51H48.0105C49.4872 51 50.2255 51 50.7894 50.7126C51.2856 50.4598 51.6888 50.0564 51.9416 49.5604C52.229 48.9962 52.229 48.258 52.229 46.7815V23.2279C52.229 20.3887 52.229 18.9691 51.7966 17.7158C51.4143 16.6074 50.7905 15.598 49.9703 14.7604C49.0425 13.8132 47.7727 13.1783 45.2332 11.9086Z" stroke="#FF6E40" stroke-width="5.2731" stroke-linecap="round" stroke-linejoin="round"/>
</svg>
