<svg width="59" height="54" viewBox="0 0 59 54" fill="none" xmlns="http://www.w3.org/2000/svg">
<path fill-rule="evenodd" clip-rule="evenodd" d="M22.3682 5.34885C19.4141 5.34885 17.0194 7.74361 17.0194 10.6977C17.0194 13.6518 19.4141 16.0466 22.3682 16.0466C25.3222 16.0466 27.7171 13.6518 27.7171 10.6977C27.7171 7.74361 25.3222 5.34885 22.3682 5.34885ZM11.6705 10.6977C11.6705 4.78954 16.4601 0 22.3682 0C28.2766 0 33.0659 4.78954 33.0659 10.6977C33.0659 16.6059 28.2766 21.3954 22.3682 21.3954C16.4601 21.3954 11.6705 16.6059 11.6705 10.6977Z" fill="#FF6E40"/>
<path fill-rule="evenodd" clip-rule="evenodd" d="M43.7636 5.34885C41.7942 5.34885 40.1977 6.94538 40.1977 8.91475C40.1977 10.8841 41.7942 12.4807 43.7636 12.4807C45.7331 12.4807 47.3295 10.8841 47.3295 8.91475C47.3295 6.94538 45.7331 5.34885 43.7636 5.34885ZM34.8489 8.91475C34.8489 3.99128 38.8402 0 43.7636 0C48.6871 0 52.6784 3.99128 52.6784 8.91475C52.6784 13.8382 48.6871 17.8295 43.7636 17.8295C38.8402 17.8295 34.8489 13.8382 34.8489 8.91475Z" fill="#FF6E40"/>
<path fill-rule="evenodd" clip-rule="evenodd" d="M31.9744 27.2347C29.0843 25.7805 25.8197 24.9614 22.3682 24.9614C10.5519 24.9614 0.972824 34.5405 0.972824 46.3568V53.4886H43.7636V46.3568C43.7636 45.143 43.6624 43.9516 43.4673 42.7909H58.0272V34.7676C58.0272 27.1847 51.4357 21.3955 43.7636 21.3955C38.9286 21.3955 34.5707 23.6656 31.9744 27.2347ZM36.4204 30.2225C38.6951 32.2055 40.5476 34.6624 41.8231 37.4421H52.6784V34.7676C52.6784 30.5342 48.8928 26.7444 43.7636 26.7444C40.657 26.7444 38.0015 28.1618 36.4204 30.2225ZM22.3682 30.3103C13.506 30.3103 6.32168 37.4945 6.32168 46.3568V48.1398H38.4148V46.3568C38.4148 44.4765 38.0924 42.6772 37.5023 41.0076C36.3623 37.7819 34.2156 35.024 31.4367 33.1163C28.8578 31.3462 25.738 30.3103 22.3682 30.3103Z" fill="#FF6E40"/>
</svg>
