<svg width="51" height="51" viewBox="0 0 51 51" fill="none" xmlns="http://www.w3.org/2000/svg">
<path d="M10.5 27.9715H15.5M10.5 37.9715H15.5M23 27.9715H28M23 37.9715H28M35.5 27.9715H40.5M35.5 37.9715H40.5" stroke="white" stroke-width="5" stroke-linecap="round" stroke-linejoin="round"/>
<path d="M3 17.9714H48M13 2.97144V7.97144M38 2.97144V7.97144M11 47.9714H40C42.8002 47.9714 44.2005 47.9714 45.27 47.4264C46.2108 46.9472 46.9757 46.1822 47.455 45.2414C48 44.1719 48 42.7717 48 39.9714V15.9714C48 13.1712 48 11.771 47.455 10.7015C46.9757 9.76066 46.2108 8.99576 45.27 8.51641C44.2005 7.97144 42.8002 7.97144 40 7.97144H11C8.19975 7.97144 6.7996 7.97144 5.73005 8.51641C4.78923 8.99576 4.02432 9.76066 3.54497 10.7015C3 11.771 3 13.1712 3 15.9714V39.9714C3 42.7717 3 44.1719 3.54497 45.2414C4.02432 46.1822 4.78923 46.9472 5.73005 47.4264C6.7996 47.9714 8.19972 47.9714 11 47.9714Z" stroke="#FFD175" stroke-width="5" stroke-linecap="round" stroke-linejoin="round"/>
</svg>
