<svg width="49" height="49" viewBox="0 0 49 49" fill="none" xmlns="http://www.w3.org/2000/svg">
<path d="M30.9072 26.873L25.625 23.821V13.2214C25.625 12.6002 25.1213 12.0964 24.5 12.0964C23.8787 12.0964 23.375 12.6002 23.375 13.2214V24.4714C23.3751 24.8731 23.5895 25.2442 23.9375 25.4448L29.7822 28.8198C29.9531 28.9193 30.1471 28.9716 30.3447 28.9714C30.746 28.9712 31.1167 28.7572 31.3176 28.4099C31.6286 27.8723 31.445 27.1841 30.9072 26.873Z" fill="white" stroke="white" stroke-width="3.33333"/>
<path d="M24.5 1.97144C12.0736 1.97144 2 12.0451 2 24.4714C2 36.8978 12.0736 46.9714 24.5 46.9714C36.9203 46.9569 46.9854 36.8918 47 24.4714C47 12.0451 36.9264 1.97144 24.5 1.97144ZM24.5 44.7214C13.3162 44.7214 4.25 35.6552 4.25 24.4714C4.25 13.2876 13.3162 4.22144 24.5 4.22144C35.6787 4.23366 44.7378 13.2927 44.75 24.4714C44.75 35.6552 35.6838 44.7214 24.5 44.7214Z" fill="#FFD175" stroke="#FFD175" stroke-width="3.33333"/>
</svg>
