<svg width="40" height="41" viewBox="0 0 40 41" fill="none" xmlns="http://www.w3.org/2000/svg">
<circle cx="20" cy="20.4707" r="17.4727" fill="#0077FF"/>
<path d="M20.6603 26.7971C13.7324 26.7971 9.78086 22.0476 9.61621 14.1445H13.0865C13.2005 19.9452 15.7588 22.4022 17.7853 22.9089V14.1445H21.0529V19.1473C23.054 18.932 25.1564 16.6523 25.8656 14.1445H29.1333C28.866 15.4451 28.3333 16.6765 27.5683 17.7618C26.8034 18.8471 25.8228 19.7628 24.6878 20.4518C25.9547 21.0813 27.0737 21.9724 27.971 23.0662C28.8683 24.1599 29.5234 25.4315 29.8932 26.7971H26.2963C25.9643 25.611 25.2897 24.5493 24.357 23.7449C23.4243 22.9406 22.2749 22.4295 21.0529 22.2756V26.7971H20.6603Z" fill="white"/>
</svg>
