<svg width="40" height="41" viewBox="0 0 40 41" fill="none" xmlns="http://www.w3.org/2000/svg">
<g clip-path="url(#clip0_25_532)">
<path d="M20 2.9707C11.7155 2.9707 5 9.6862 5 17.9707C5 22.1115 6.67775 25.8607 9.39125 28.575C12.1055 31.2907 18.5 35.2207 18.875 39.3457C18.9312 39.9642 19.379 40.4707 20 40.4707C20.621 40.4707 21.0688 39.9642 21.125 39.3457C21.5 35.2207 27.8945 31.2907 30.6087 28.575C33.3222 25.8607 35 22.1115 35 17.9707C35 9.6862 28.2845 2.9707 20 2.9707Z" fill="#FF4433"/>
<path d="M20 23.2211C22.8995 23.2211 25.25 20.8706 25.25 17.9711C25.25 15.0716 22.8995 12.7211 20 12.7211C17.1005 12.7211 14.75 15.0716 14.75 17.9711C14.75 20.8706 17.1005 23.2211 20 23.2211Z" fill="white"/>
</g>
<defs>
<clipPath id="clip0_25_532">
<rect width="40" height="40" fill="white" transform="translate(0 0.470703)"/>
</clipPath>
</defs>
</svg>
